<?xml version="1.0" encoding="utf-8"?>
<!-- Generator: Adobe Illustrator 26.4.1, SVG Export Plug-In . SVG Version: 6.00 Build 0)  -->
<svg version="1.1" id="Capa_1" xmlns="http://www.w3.org/2000/svg" xmlns:xlink="http://www.w3.org/1999/xlink" x="0px" y="0px"
	 viewBox="0 0 121.3 44.6" style="enable-background:new 0 0 121.3 44.6;" xml:space="preserve">
<style type="text/css">
	.st0{fill:#FFFFFF;stroke:#FFFFFF;stroke-width:2;stroke-miterlimit:10;}
	.st1{fill:#FFFFFF;stroke:#FFFFFF;stroke-miterlimit:10;}
	.st2{fill:#FFFFFF;}
</style>
<g id="Capa_2_00000015341098874785733470000013330448242582003636_">
	<g id="Capa_1-2">
		<path class="st0" d="M22.7,33.8v-0.2c3.8-1.7,6.8-6.3,6.8-12.8c0-7.9-4.9-14.5-13.5-14.5C8.5,6.3,2.5,12.5,2,20
			C1.5,30.1,7.7,35.4,14.5,35.9c0.7,0,1.4,0.2,2,0.4C20,42.7,56.7,43,64.2,43l2.2-4.1C58.7,39.2,26.7,39.7,22.7,33.8z M15.8,30.7
			c-4.4,0-7-4.2-7-9.6s2.6-9.7,7-9.7s6.9,4.3,6.9,9.6C22.7,26.6,20.2,30.7,15.8,30.7z"/>
		<path class="st1" d="M55.9,11.7v23.7h-7.3v-3.2c-0.8,1.1-1.8,1.9-3,2.5c-1.3,0.7-2.7,1-4.2,1c-1.7,0-3.3-0.4-4.8-1.3
			c-1.4-0.8-2.5-2-3.2-3.5c-0.8-1.7-1.2-3.5-1.1-5.4V11.7h7.2v12.8c-0.1,1.3,0.4,2.7,1.2,3.7c0.9,0.9,2,1.4,3.3,1.3
			c1.3,0.1,2.5-0.4,3.3-1.3c0.9-1,1.3-2.3,1.2-3.7V11.7H55.9z"/>
		<path class="st1" d="M60,11.7v23.7h7.3V11.7H60z M66.8,2.5c-0.9-0.7-2-1.1-3.1-1.1s-2.3,0.4-3.1,1.2c-0.8,0.7-1.2,1.7-1.2,2.8
			c0,1,0.4,2,1.2,2.7c0.8,0.8,2,1.2,3.1,1.2C64.9,9.4,66,9,66.8,8.2C67.6,7.5,68,6.5,68,5.4C68.1,4.3,67.6,3.2,66.8,2.5z"/>
		<path class="st1" d="M85.6,26.7h7.7c-0.5,2.6-1.9,4.9-3.9,6.5c-2.1,1.6-4.8,2.5-7.4,2.4c-2.2,0-4.3-0.5-6.2-1.5
			c-0.9-0.5-1.6-1-2.3-1.7c-0.1-0.1-0.1-0.1-0.2-0.2c-0.7-0.7-1.2-1.4-1.7-2.3c-1.1-2-1.6-4.2-1.6-6.5c0-2.1,0.5-4.3,1.6-6.3
			c1-1.8,2.4-3.3,4.2-4.3c1.9-1,4-1.5,6.2-1.4c2.7-0.1,5.3,0.7,7.4,2.3c2.1,1.7,3.4,4,3.9,6.6h-7.7c-0.5-1.7-2-2.8-3.8-2.7
			c-1.3,0-2.4,0.5-3.2,1.5c-0.9,1.3-1.3,2.9-1.2,4.4c-0.1,1.6,0.3,3.1,1.2,4.4c0.7,1,1.9,1.6,3.2,1.5C83.5,29.5,85.1,28.4,85.6,26.7
			z"/>
		<path class="st1" d="M110.6,35.4l-7.2-9.9v9.9h-7.3V4h7.3v17.4l7.2-9.6h9l-9.8,11.9l9.9,11.8L110.6,35.4L110.6,35.4z"/>
	</g>
</g>
<g>
	<g>
		<polygon class="st2" points="91.7,38.5 69.7,39.5 70,38.8 70,38.8 70.7,37.6 		"/>
	</g>
	<g>
		<polygon class="st2" points="85.2,40.9 68.5,41.8 69.4,40 		"/>
	</g>
	<g>
		<polygon class="st2" points="78.2,43.2 67.2,44.1 67.9,42.8 68.1,42.4 		"/>
	</g>
</g>
<path class="st2" d="M73.5,32.3L73.5,32.3c-0.1,0-0.2-0.1-0.3-0.1L73.5,32.3z"/>
</svg>
