<svg xmlns="http://www.w3.org/2000/svg" viewBox="0 0 118.55 40.12"><defs><style>.cls-1,.cls-2{fill:#141212;}.cls-1{stroke:#141212;stroke-miterlimit:10;stroke-width:2px;}</style></defs><g id="Capa_2" data-name="Capa 2"><g id="Capa_1-2" data-name="Capa 1"><path class="cls-1" d="M26.79,38.9a113.48,113.48,0,0,1-11.33-4,6.43,6.43,0,0,0-2-.42C7,34,1,29.27,1,19.9c0-8.61,5.43-15,14-15S28.49,11.5,28.49,19.35c0,6.49-3,11.07-6.75,12.76v.17c2.17.64,4.63,1.19,6.87,1.62ZM21.66,19.6c0-5.26-2.46-9.59-6.87-9.59s-7,4.33-7,9.72,2.59,9.58,7,9.58S21.66,25.2,21.66,19.6Z"/><path class="cls-2" d="M54.88,10.31V34H47.62V30.76a8,8,0,0,1-3,2.52,9.09,9.09,0,0,1-4.18,1A9.39,9.39,0,0,1,35.66,33a8.24,8.24,0,0,1-3.23-3.5,12,12,0,0,1-1.14-5.39V10.31H38.5V23.16a5.17,5.17,0,0,0,1.23,3.69A4.3,4.3,0,0,0,43,28.17a4.36,4.36,0,0,0,3.35-1.32,5.17,5.17,0,0,0,1.23-3.69V10.31Z"/><path class="cls-2" d="M59.56,6.72A3.64,3.64,0,0,1,58.35,4a3.68,3.68,0,0,1,1.21-2.82A4.41,4.41,0,0,1,62.68,0a4.35,4.35,0,0,1,3.08,1.13A3.68,3.68,0,0,1,67,4a3.64,3.64,0,0,1-1.21,2.77,4.35,4.35,0,0,1-3.08,1.13A4.41,4.41,0,0,1,59.56,6.72Zm6.73,3.59V34H59V10.31Z"/><path class="cls-2" d="M70.55,15.7a10.42,10.42,0,0,1,4.2-4.25A12.57,12.57,0,0,1,80.92,10a11.79,11.79,0,0,1,7.45,2.33,11,11,0,0,1,3.92,6.58H84.57a3.72,3.72,0,0,0-3.77-2.72,3.84,3.84,0,0,0-3.19,1.55,7.17,7.17,0,0,0-1.18,4.43,7.18,7.18,0,0,0,1.18,4.44,3.84,3.84,0,0,0,3.19,1.55,3.72,3.72,0,0,0,3.77-2.72h7.72a11.12,11.12,0,0,1-3.94,6.53,11.61,11.61,0,0,1-7.43,2.38,12.47,12.47,0,0,1-6.17-1.49,10.34,10.34,0,0,1-4.2-4.24A13.28,13.28,0,0,1,69,22.14,13.26,13.26,0,0,1,70.55,15.7Z"/><path class="cls-2" d="M109.56,34l-7.21-9.93V34H95.09V2.59h7.26V19.94l7.17-9.63h9l-9.84,11.88L118.55,34Z"/></g></g></svg>